<svg width="1512" height="1034" viewBox="0 0 1512 1034" fill="none" xmlns="http://www.w3.org/2000/svg">
<g clip-path="url(#clip0_399_158)">
<path d="M1263.23 1525.12C1165.39 1375.01 1077.75 1311.14 1000.34 1333.5C884.213 1367.05 706.059 1531.98 532.422 1514.71C358.789 1497.44 240.049 1801.8 389.951 2001.81C539.853 2201.83 761.956 2520.4 1089.63 2143.45C1308.09 1892.15 1365.95 1686.04 1263.23 1525.12Z" fill="#FFFA72"/>
<path d="M1542.85 684.83C1268.89 264.511 1023.52 85.6655 806.758 148.282C481.608 242.213 -17.2244 704.012 -503.408 655.666C-989.579 607.319 -1322.05 1459.52 -902.326 2019.56C-482.601 2579.6 139.288 3471.61 1056.79 2416.15C1668.46 1712.5 1830.48 1135.4 1542.85 684.83Z" fill="#12181F"/>
<path d="M1519.55 754.855C1260.26 357.053 1028.04 187.788 822.89 247.051C515.159 335.95 43.0492 773.009 -417.088 727.254C-877.215 681.496 -1191.88 1488.04 -794.636 2018.08C-397.396 2548.11 191.177 3392.34 1059.52 2393.42C1638.43 1727.47 1791.77 1181.29 1519.55 754.855Z" fill="#3A1B1C" fill-opacity="0.51"/>
<path d="M1496.25 824.879C1251.64 449.595 1032.56 289.911 839.023 345.819C548.711 429.686 103.324 842.006 -330.768 798.841C-764.849 755.673 -1061.7 1516.57 -686.945 2016.6C-312.19 2516.63 243.068 3313.07 1062.26 2370.7C1608.4 1742.44 1753.06 1227.17 1496.25 824.879Z" fill="#4A1517" fill-opacity="0.71"/>
<path d="M1467.85 895.261C1237.92 542.493 1031.99 392.391 850.061 444.944C577.167 523.779 158.504 911.36 -249.542 870.784C-657.579 830.207 -936.618 1545.45 -584.349 2015.48C-232.079 2485.51 289.863 3234.16 1059.91 2348.33C1573.27 1757.77 1709.26 1273.42 1467.85 895.261Z" fill="#511718" fill-opacity="0.6"/>
<path d="M1449.65 964.928C1234.39 634.678 1041.6 494.156 871.286 543.355C615.811 617.158 223.872 980 -158.129 942.014C-540.121 904.027 -801.35 1573.61 -471.565 2013.64C-141.781 2453.67 346.845 3154.54 1067.74 2325.25C1548.34 1772.38 1675.64 1318.95 1449.65 964.928Z" fill="#612123" fill-opacity="0.71"/>
<path d="M1426.34 1034.95C1225.76 727.219 1046.12 596.279 887.418 642.123C649.361 710.894 284.145 1049 -71.8108 1013.6C-427.757 978.204 -671.175 1602.14 -363.876 2012.16C-56.5771 2422.19 398.734 3075.27 1070.47 2302.52C1518.31 1787.35 1636.93 1364.83 1426.34 1034.95Z" fill="#711B1C" fill-opacity="0.77"/>
<path d="M1403.04 1104.98C1217.14 819.761 1050.64 698.401 903.549 740.891C682.912 804.63 344.418 1117.99 14.5082 1085.19C-315.394 1052.38 -541 1630.66 -256.186 2010.69C28.6273 2390.71 450.623 2996 1073.21 2279.8C1488.27 1802.32 1598.22 1410.72 1403.04 1104.98Z" fill="#842021" fill-opacity="0.76"/>
<path d="M1379.74 1175C1208.51 912.303 1055.16 800.524 919.681 839.66C716.462 898.366 404.692 1186.99 100.827 1156.77C-203.03 1126.56 -410.825 1659.18 -148.497 2009.21C113.831 2359.23 502.512 2916.74 1075.95 2257.07C1458.24 1817.29 1559.51 1456.61 1379.74 1175Z" fill="#9D2122"/>
<path d="M1356.44 1245.03C1199.89 1004.84 1059.68 902.647 935.812 938.428C750.012 992.103 464.965 1255.99 187.146 1228.36C-90.6659 1200.73 -280.65 1687.71 -40.8073 2007.73C199.036 2327.75 554.401 2837.47 1078.69 2234.35C1428.21 1832.26 1520.8 1502.5 1356.44 1245.03Z" fill="#A62021"/>
<path d="M1333.14 1315.05C1191.26 1097.39 1064.2 1004.77 951.944 1037.2C783.562 1085.84 525.238 1324.98 273.465 1299.95C21.6979 1274.91 -150.476 1716.23 66.8822 2006.25C284.24 2296.27 606.289 2758.2 1081.42 2211.63C1398.18 1847.24 1482.09 1548.38 1333.14 1315.05Z" fill="#9E2424" fill-opacity="0.82"/>
<path d="M1309.83 1385.08C1182.64 1189.93 1068.72 1106.89 968.075 1135.96C817.113 1179.57 585.512 1393.98 359.784 1371.54C134.062 1349.09 -20.3007 1744.75 174.572 2004.77C369.444 2264.79 658.178 2678.94 1084.16 2188.9C1368.15 1862.21 1443.37 1594.27 1309.83 1385.08Z" fill="#890F0F" fill-opacity="0.4"/>
<path d="M1286.53 1455.1C1174.01 1282.47 1073.23 1209.01 984.207 1234.73C850.663 1273.31 645.785 1462.98 446.103 1443.12C246.426 1423.27 109.874 1773.28 282.261 2003.29C454.649 2233.31 710.067 2599.67 1086.9 2166.18C1338.12 1877.18 1404.66 1640.16 1286.53 1455.1Z" fill="#950B0B"/>
</g>
<defs>
<clipPath id="clip0_399_158">
<rect width="2053.57" height="1619.3" fill="white" transform="translate(2160.37 639.359) rotate(131)"/>
</clipPath>
</defs>
</svg>
