<svg width="1512" height="1034" viewBox="0 0 1512 1034" fill="none" xmlns="http://www.w3.org/2000/svg">
<g clip-path="url(#clip0_345_132)">
<path d="M1262.97 1522.12C1165.12 1372.01 1077.49 1308.14 1000.07 1330.5C883.95 1364.05 705.795 1528.97 532.158 1511.71C358.526 1494.44 239.785 1798.8 389.687 1998.81C539.589 2198.83 761.692 2517.4 1089.37 2140.45C1307.82 1889.15 1365.69 1683.04 1262.97 1522.12Z" fill="#FFFA72"/>
<path d="M1542.59 681.83C1268.63 261.511 1023.26 82.6653 806.494 145.282C481.345 239.213 -17.488 701.012 -503.671 652.666C-989.842 604.319 -1322.32 1456.52 -902.59 2016.56C-482.864 2576.6 139.024 3468.61 1056.52 2413.15C1668.19 1709.5 1830.22 1132.4 1542.59 681.83Z" fill="#12181F"/>
<path d="M1519.29 751.855C1260 354.053 1027.78 184.788 822.626 244.051C514.895 332.949 42.7856 770.009 -417.352 724.253C-877.478 678.496 -1192.14 1485.04 -794.9 2015.08C-397.66 2545.11 190.913 3389.34 1059.26 2390.42C1638.16 1724.47 1791.51 1178.29 1519.29 751.855Z" fill="#3A1B1C" fill-opacity="0.51"/>
<path d="M1495.99 821.879C1251.38 446.594 1032.3 286.911 838.759 342.819C548.447 426.685 103.061 839.006 -331.031 795.84C-765.113 752.673 -1061.96 1513.57 -687.209 2013.6C-312.454 2513.63 242.804 3310.07 1062 2367.7C1608.13 1739.44 1752.8 1224.17 1495.99 821.879Z" fill="#4A1517" fill-opacity="0.71"/>
<path d="M1467.59 892.26C1237.66 539.493 1031.72 389.39 849.797 441.944C576.904 520.779 158.241 908.36 -249.806 867.784C-657.842 827.207 -936.882 1542.45 -584.613 2012.48C-232.343 2482.51 289.599 3231.16 1059.64 2345.33C1573.01 1754.77 1708.99 1270.42 1467.59 892.26Z" fill="#511718" fill-opacity="0.6"/>
<path d="M1449.38 961.928C1234.13 631.678 1041.34 491.156 871.023 540.355C615.548 614.158 223.608 977 -158.393 939.014C-540.385 901.027 -801.613 1570.61 -471.829 2010.64C-142.045 2450.67 346.582 3151.54 1067.47 2322.25C1548.07 1769.38 1675.38 1315.95 1449.38 961.928Z" fill="#612123" fill-opacity="0.71"/>
<path d="M1426.08 1031.95C1225.5 724.219 1045.86 593.279 887.154 639.123C649.098 707.894 283.881 1046 -72.0744 1010.6C-428.021 975.203 -671.439 1599.14 -364.14 2009.16C-56.8407 2419.19 398.47 3072.27 1070.21 2299.52C1518.04 1784.35 1636.66 1361.83 1426.08 1031.95Z" fill="#711B1C" fill-opacity="0.77"/>
<path d="M1402.78 1101.98C1216.87 816.761 1050.38 695.401 903.286 737.891C682.648 801.63 344.155 1114.99 14.2445 1082.19C-315.657 1049.38 -541.264 1627.66 -256.45 2007.69C28.3636 2387.71 450.359 2993 1072.95 2276.8C1488.01 1799.32 1597.95 1407.72 1402.78 1101.98Z" fill="#842021" fill-opacity="0.76"/>
<path d="M1379.48 1172C1208.25 909.302 1054.89 797.524 919.417 836.659C716.198 895.366 404.428 1183.99 100.563 1153.77C-203.293 1123.56 -411.089 1656.18 -148.761 2006.21C113.568 2356.23 502.248 2913.74 1075.68 2254.07C1457.98 1814.29 1559.24 1453.61 1379.48 1172Z" fill="#9D2122"/>
<path d="M1356.17 1242.03C1199.62 1001.84 1059.41 899.647 935.549 935.428C749.749 989.102 464.701 1252.99 186.882 1225.36C-90.9296 1197.73 -280.914 1684.71 -41.071 2004.73C198.772 2324.75 554.137 2834.47 1078.42 2231.35C1427.95 1829.26 1520.53 1499.5 1356.17 1242.03Z" fill="#A62021"/>
<path d="M1332.87 1312.05C1191 1094.39 1063.93 1001.77 951.68 1034.2C783.299 1082.84 524.975 1321.98 273.201 1296.95C21.4342 1271.91 -150.739 1713.23 66.6185 2003.25C283.976 2293.27 606.026 2755.2 1081.16 2208.62C1397.92 1844.24 1481.82 1545.38 1332.87 1312.05Z" fill="#9E2424" fill-opacity="0.82"/>
<path d="M1309.57 1382.08C1182.37 1186.93 1068.45 1103.89 967.811 1132.96C816.849 1176.57 585.248 1390.98 359.52 1368.54C133.798 1346.09 -20.5643 1741.75 174.308 2001.77C369.181 2261.79 657.915 2675.94 1083.9 2185.9C1367.89 1859.21 1443.11 1591.27 1309.57 1382.08Z" fill="#890F0F" fill-opacity="0.4"/>
<path d="M1286.27 1452.1C1173.75 1279.47 1072.97 1206.01 983.943 1231.73C850.399 1270.31 645.522 1459.98 445.839 1440.12C246.162 1420.26 109.611 1770.28 281.998 2000.29C454.385 2230.31 709.803 2596.67 1086.63 2163.18C1337.86 1874.18 1404.4 1637.16 1286.27 1452.1Z" fill="#950B0B"/>
</g>
<defs>
<clipPath id="clip0_345_132">
<rect width="2053.57" height="1619.3" fill="white" transform="translate(2160.1 636.358) rotate(131)"/>
</clipPath>
</defs>
</svg>
