<svg width="1512" height="1034" viewBox="0 0 1512 1034" fill="none" xmlns="http://www.w3.org/2000/svg">
<g clip-path="url(#clip0_345_62)">
<path d="M1126.68 1454.67C1050.17 1306.15 971.769 1244.55 891.469 1269.87C771.018 1307.86 570.335 1480.98 399.672 1469.54C229.014 1458.1 68.0274 1770.27 189.437 1967.49C310.847 2164.71 487.621 2479.42 867.043 2086.51C1119.99 1824.58 1206.54 1613.97 1126.68 1454.67Z" fill="#FFFA72"/>
<path d="M1523.1 594.493C1308.88 178.617 1089.34 6.14065 864.502 77.0521C527.238 183.425 -34.6742 668.154 -512.53 636.129C-990.374 604.102 -1441.14 1478.17 -1101.19 2030.39C-761.242 2582.6 -266.273 3463.78 796.108 2363.65C1504.37 1630.22 1746.7 1040.51 1523.1 594.493Z" fill="#12181F"/>
<path d="M1490.06 666.175C1287.32 272.578 1079.54 109.341 866.75 176.454C547.553 277.128 15.7437 735.889 -436.513 705.58C-888.758 675.268 -1315.37 1502.51 -993.636 2025.15C-671.901 2547.78 -203.448 3381.75 802.021 2340.55C1472.34 1646.42 1701.69 1088.3 1490.06 666.175Z" fill="#0E1B2E"/>
<path d="M1457.03 737.857C1265.76 366.539 1069.75 212.542 868.996 275.855C567.867 370.831 66.16 803.625 -360.497 775.031C-787.143 746.436 -1189.61 1526.85 -886.085 2019.9C-582.561 2512.95 -140.625 3299.72 807.93 2317.46C1440.31 1662.61 1656.67 1136.09 1457.03 737.857Z" fill="#0D203D"/>
<path d="M1423.99 809.538C1244.2 460.5 1059.95 315.742 871.244 375.257C588.183 464.534 116.578 871.36 -284.48 844.483C-685.527 817.603 -1063.85 1551.2 -778.533 2014.66C-493.22 2478.13 -77.8 3217.69 813.842 2294.36C1408.28 1678.81 1611.66 1183.88 1423.99 809.538Z" fill="#0B254B"/>
<path d="M1390.96 881.22C1222.64 554.46 1050.15 418.943 873.49 474.659C608.496 558.238 166.994 939.096 -208.464 913.934C-583.913 888.769 -938.083 1575.54 -670.982 2009.42C-403.881 2443.31 -14.9766 3135.66 819.752 2271.27C1376.24 1695.01 1566.64 1231.66 1390.96 881.22Z" fill="#0A2A5A"/>
<path d="M1357.92 952.902C1201.08 648.421 1040.35 522.143 875.738 574.061C628.812 651.941 217.412 1006.83 -132.447 983.385C-482.296 959.936 -812.319 1599.88 -563.429 2004.18C-314.539 2408.48 47.8484 3053.63 825.664 2248.18C1344.21 1711.2 1521.63 1279.45 1357.92 952.902Z" fill="#092F68"/>
<path d="M1324.89 1024.58C1179.53 742.382 1030.56 625.344 877.986 673.462C649.128 745.644 267.83 1074.57 -56.4289 1052.84C-380.68 1031.1 -686.554 1624.22 -455.876 1998.94C-225.198 2373.66 110.674 2971.6 831.576 2225.08C1312.18 1727.4 1476.62 1327.24 1324.89 1024.58Z" fill="#073377"/>
<path d="M1291.85 1096.26C1157.97 836.342 1020.76 728.544 880.232 772.864C669.441 839.347 318.246 1142.3 19.5865 1122.29C-279.066 1102.27 -560.792 1648.56 -348.325 1993.7C-135.858 2338.83 173.497 2889.57 837.486 2201.99C1280.15 1743.6 1431.6 1375.03 1291.85 1096.26Z" fill="#063885"/>
<path d="M1258.82 1167.95C1136.41 930.303 1010.96 831.745 882.48 872.266C689.757 933.05 368.665 1210.04 95.6041 1191.74C-177.449 1173.44 -435.028 1672.91 -240.772 1988.46C-46.5171 2304.01 236.322 2807.54 843.398 2178.89C1248.12 1759.79 1386.59 1422.81 1258.82 1167.95Z" fill="#043D94"/>
</g>
<defs>
<clipPath id="clip0_345_62">
<rect width="2245.73" height="1486.65" fill="white" transform="translate(2145 527) rotate(134)"/>
</clipPath>
</defs>
</svg>
